<?xml version="1.0" encoding="UTF-8"?>
<svg version="1.1" xmlns="http://www.w3.org/2000/svg" width="1013" height="232">
<path d="M0 0 C334.29 0 668.58 0 1013 0 C1013 76.56 1013 153.12 1013 232 C678.71 232 344.42 232 0 232 C0 155.44 0 78.88 0 0 Z " fill="#1C1C1C" transform="translate(0,0)"/>
<path d="M0 0 C58.69354839 0 58.69354839 0 67 7 C70.86613436 12.09515812 74.29518313 17.44412258 73.9140625 24 C73.87104004 24.79591553 73.82801758 25.59183105 73.78369141 26.41186523 C73.73132324 27.26594971 73.67895508 28.12003418 73.625 29 C73.52038568 30.8033595 73.41623103 32.60674572 73.3125 34.41015625 C73.23128906 35.79485107 73.23128906 35.79485107 73.1484375 37.20751953 C73.00379889 39.92853338 72.90072266 42.64772028 72.8125 45.37109375 C72.78075684 46.22251953 72.74901367 47.07394531 72.71630859 47.95117188 C72.6567401 49.5732187 72.60711862 51.19567036 72.56884766 52.81835938 C72.38297221 57.33051045 71.90610636 60.47020871 69 64 C67.0625 65.14453125 67.0625 65.14453125 65 65.8125 C64.319375 66.04582031 63.63875 66.27914062 62.9375 66.51953125 C61 67 61 67 58 67 C60.71574458 69.88033516 63.19453514 72.1667976 66.5625 74.25 C70.85861146 77.26618338 72.42860375 81.08966449 74 86 C74.48367372 89.18915132 74.49436705 92.28360849 74.42578125 95.50390625 C74.42084908 96.82623512 74.42084908 96.82623512 74.41581726 98.17527771 C74.40021157 100.9715371 74.35634178 103.76655723 74.3125 106.5625 C74.30098567 108.40949513 74.29120734 110.25650194 74.28320312 112.10351562 C74.07727805 142.92272195 74.07727805 142.92272195 72 145 C70.07332493 145.08748207 68.14348139 145.10697334 66.21484375 145.09765625 C65.04501953 145.09443359 63.87519531 145.09121094 62.66992188 145.08789062 C61.43822266 145.07951172 60.20652344 145.07113281 58.9375 145.0625 C57.08415039 145.05573242 57.08415039 145.05573242 55.19335938 145.04882812 C52.12885883 145.03699608 49.06445279 145.02051173 46 145 C45.37192255 124.99506501 44.82337698 105.01727573 45 85 C44.38125 84.71125 43.7625 84.4225 43.125 84.125 C41 83 41 83 39 81 C36.36 80.34 33.72 79.68 31 79 C31 100.78 31 122.56 31 145 C20.77 145 10.54 145 0 145 C0 97.15 0 49.3 0 0 Z " fill="#F9F9F9" transform="translate(478,45)"/>
<path d="M0 0 C57.47126437 0 57.47126437 0 68 8 C75.98822774 17.12455738 74.30678673 28.39807492 73.66796875 39.78125 C73.51299561 42.02119796 73.35283678 44.26079316 73.1875 46.5 C73.11724609 47.63953125 73.04699219 48.7790625 72.97460938 49.953125 C72.89404297 51.05140625 72.81347656 52.1496875 72.73046875 53.28125 C72.66239014 54.26158203 72.59431152 55.24191406 72.52416992 56.25195312 C71.92421981 59.39729008 70.84878867 61.40172564 69 64 C67.0625 65.14453125 67.0625 65.14453125 65 65.8125 C64.319375 66.04582031 63.63875 66.27914062 62.9375 66.51953125 C61 67 61 67 58 67 C61.17497575 70.58910302 64.74242866 72.73100559 68.87890625 75.046875 C72.8600026 78.71270957 74.13540416 83.99004225 74.35644531 89.26269531 C74.36255464 90.78452222 74.35242493 92.30647984 74.328125 93.828125 C74.3266597 94.65173019 74.3251944 95.47533539 74.32368469 96.32389832 C74.31452211 98.96628371 74.28314089 101.60781595 74.25 104.25 C74.23743655 106.05997208 74.2256377 107.86994962 74.21459961 109.67993164 C73.95055501 144.04944499 73.95055501 144.04944499 72 146 C70.23140807 146.09946453 68.45888549 146.13080217 66.6875 146.1328125 C65.61242187 146.13410156 64.53734375 146.13539063 63.4296875 146.13671875 C62.29789063 146.13285156 61.16609375 146.12898437 60 146.125 C58.30230469 146.13080078 58.30230469 146.13080078 56.5703125 146.13671875 C55.49523437 146.13542969 54.42015625 146.13414062 53.3125 146.1328125 C52.31863281 146.13168457 51.32476563 146.13055664 50.30078125 146.12939453 C48 146 48 146 47 145 C46.86381858 142.0978609 46.7891444 139.21640881 46.75390625 136.3125 C46.72088819 134.47916332 46.68767826 132.6458301 46.65429688 130.8125 C46.60747461 127.9323243 46.56322485 125.05215325 46.52319336 122.171875 C46.3834301 112.58428259 46.19587724 102.99202717 45.33984375 93.4375 C45.29702774 92.75341064 45.25421173 92.06932129 45.21009827 91.36450195 C44.80255203 87.55250323 43.99049005 85.98979428 41.35375977 83.16015625 C37.61922224 80.52562859 37.61922224 80.52562859 31 79 C31 100.78 31 122.56 31 145 C20.77 145 10.54 145 0 145 C0 97.15 0 49.3 0 0 Z " fill="#F9F9F9" transform="translate(889,45)"/>
<path d="M0 0 C0.90717773 0.00202423 1.81435547 0.00404846 2.74902344 0.00613403 C3.68069336 0.00517731 4.61236328 0.00422058 5.57226562 0.00323486 C7.55289782 0.00255243 9.53353222 0.00441109 11.51416016 0.00857544 C14.52088589 0.01387491 17.52745893 0.00865768 20.53417969 0.00222778 C22.45996126 0.00288949 24.38574275 0.00417257 26.31152344 0.00613403 C27.20250732 0.0041098 28.09349121 0.00208557 29.01147461 0 C34.60262466 0.02056536 40.01415316 0.43219022 45.56152344 1.13894653 C45.61163574 2.23021851 45.66174805 3.32149048 45.71337891 4.4458313 C46.82979984 29.78218139 46.82979984 29.78218139 48.62402344 55.07644653 C48.74269775 56.47455566 48.74269775 56.47455566 48.86376953 57.90090942 C48.88583687 61.8443096 48.88583687 61.8443096 50.56152344 65.13894653 C50.81356956 67.85955628 50.99156254 70.55188207 51.12011719 73.27957153 C51.16236923 74.15567078 51.20462128 75.03177002 51.24815369 75.93441772 C51.78579256 88.57004561 51.67286701 101.21825516 51.63018799 113.86239624 C51.61976399 117.28920861 51.6153505 120.71602896 51.61035156 124.14285278 C51.59945907 130.8082373 51.58282793 137.47358758 51.56152344 144.13894653 C47.20802715 144.8260904 43.03432224 145.26042112 38.62792969 145.23660278 C37.03754883 145.2317688 37.03754883 145.2317688 35.41503906 145.22683716 C34.32900391 145.21845825 33.24296875 145.21007935 32.12402344 145.20144653 C31.01091797 145.19693481 29.8978125 145.1924231 28.75097656 145.18777466 C26.02110243 145.17605846 23.2913417 145.15965352 20.56152344 145.13894653 C19.96269443 130.13159075 19.42244644 115.1592618 19.56152344 100.13894653 C13.29152344 100.13894653 7.02152344 100.13894653 0.56152344 100.13894653 C0.51253906 101.63683716 0.46355469 103.13472778 0.41308594 104.67800903 C0.05690737 114.57103361 -0.32337938 124.32488154 -1.93847656 134.10379028 C-2.54187939 137.76663403 -2.97803331 141.45540051 -3.43847656 145.13894653 C-9.70847656 145.13894653 -15.97847656 145.13894653 -22.43847656 145.13894653 C-22.59325129 137.24543539 -22.49886812 129.67571041 -21.51660156 121.84597778 C-20.75017943 115.35801981 -20.15403253 108.88069306 -19.72753906 102.36160278 C-19.67357468 101.53971466 -19.61961029 100.71782654 -19.56401062 99.87103271 C-19.45383554 98.18194055 -19.34405279 96.49282276 -19.23464966 94.80368042 C-18.18757228 78.88564014 -16.53149795 63.2937323 -13.96337891 47.54373169 C-12.74907412 39.66712958 -11.81665272 31.74783216 -10.83325195 23.83963013 C-7.83774862 0.02970282 -7.83774862 0.02970282 0 0 Z " fill="#F8F8F8" transform="translate(581.4384765625,44.861053466796875)"/>
<path d="M0 0 C0.91031479 0.00202423 1.82062958 0.00404846 2.75852966 0.00613403 C4.15959206 0.00469894 4.15959206 0.00469894 5.58895874 0.00323486 C7.5737871 0.0025525 9.55861767 0.00441069 11.54344177 0.00857544 C14.56115349 0.01388109 17.5787135 0.00865422 20.59642029 0.00222778 C22.52545707 0.00288938 24.45449376 0.00417221 26.38352966 0.00613403 C27.27967484 0.0041098 28.17582001 0.00208557 29.09912109 0 C34.33418562 0.01925391 39.35454024 0.38194943 44.53587341 1.13894653 C44.60318665 2.03758423 44.60318665 2.03758423 44.67185974 2.95437622 C44.81199915 4.81754974 44.95296044 6.68066152 45.09446716 8.54373169 C45.26916492 10.84537459 45.44225044 13.14714024 45.61399841 15.44900513 C46.09947457 21.85080626 46.63144528 28.24232852 47.26634216 34.63113403 C49.24605492 55.17033787 50.09917194 75.70870303 50.72337341 96.32644653 C50.74485443 97.02808174 50.76633545 97.72971695 50.78846741 98.45261383 C51.25333151 113.68033285 51.70100988 128.90263788 51.53587341 144.13894653 C48.61939998 144.30978598 45.70277268 144.47567078 42.78587341 144.63894653 C41.57737732 144.7104895 41.57737732 144.7104895 40.34446716 144.78347778 C33.73771905 145.14762925 27.15164435 145.19029792 20.53587341 145.13894653 C19.79860419 130.12100783 19.43145189 115.17564649 19.53587341 100.13894653 C13.26587341 100.13894653 6.99587341 100.13894653 0.53587341 100.13894653 C0.43274841 102.73769653 0.32962341 105.33644653 0.22337341 108.01394653 C-0.35624352 120.45436818 -1.93565347 132.78619207 -3.46412659 145.13894653 C-9.73412659 145.13894653 -16.00412659 145.13894653 -22.46412659 145.13894653 C-22.58931685 132.99549069 -22.58931685 132.99549069 -22.00074768 128.96853638 C-21.41096345 124.75954847 -21.07403765 120.57588827 -20.78053284 116.33816528 C-20.65622873 114.62006308 -20.53187819 112.90196423 -20.40748596 111.18386841 C-20.21778106 108.52338467 -20.02918874 105.86282769 -19.84181213 103.20217896 C-18.42277952 83.15340955 -16.02382146 63.2982172 -13.43238831 43.368927 C-12.96227066 39.74965839 -12.4962683 36.12987511 -12.03053284 32.51004028 C-11.7273946 30.1701645 -11.42401755 27.83031963 -11.12037659 25.49050903 C-10.98385681 24.42772736 -10.84733704 23.36494568 -10.7066803 22.2699585 C-7.800971 0.02944917 -7.800971 0.02944917 0 0 Z " fill="#FAFAFA" transform="translate(131.46412658691406,44.861053466796875)"/>
<path d="M0 0 C8.58 0 17.16 0 26 0 C25.67 16.83 25.34 33.66 25 51 C27.97 51 30.94 51 34 51 C34.27972656 50.29617187 34.55945313 49.59234375 34.84765625 48.8671875 C37.79429775 41.53554391 40.86756281 34.25406507 44 27 C44.66 27 45.32 27 46 27 C46.0825 26.154375 46.165 25.30875 46.25 24.4375 C46.97396093 21.11934572 48.12459946 18.87065252 49.88671875 16 C51.62290294 12.88096034 52.8166423 9.57058826 54.0703125 6.234375 C55 4 55 4 57 1 C59.91330078 0.75130359 62.59420295 0.67365722 65.5 0.75 C66.28503906 0.75515625 67.07007813 0.7603125 67.87890625 0.765625 C73.69075176 0.84537588 73.69075176 0.84537588 76 2 C74.74763509 6.17454972 73.09632982 9.87373623 71.10351562 13.72314453 C70.04645583 15.90414888 69.19302426 18.08005681 68.3515625 20.3515625 C66.61899945 24.73738985 64.55692779 28.88894909 62.328125 33.0390625 C61.99871918 33.65523437 61.66931335 34.27140625 61.32992554 34.90625 C59.959947 37.46181624 58.58551194 40.01450105 57.18896484 42.55566406 C56.15771688 44.43822994 55.14792851 46.33110195 54.140625 48.2265625 C53.53766602 49.33596191 52.93470703 50.44536133 52.31347656 51.58837891 C50.35830729 56.66673122 50.10664522 61.76661304 52.171875 66.9296875 C52.42203369 67.57437988 52.67219238 68.21907227 52.92993164 68.88330078 C53.33586548 69.86919189 53.33586548 69.86919189 53.75 70.875 C54.02513428 71.5747998 54.30026855 72.27459961 54.58374023 72.99560547 C55.37587863 75.002727 56.18476311 77.00216963 57 79 C57.68765194 80.70827218 58.37517812 82.416595 59.0625 84.125 C59.37316406 84.89328125 59.68382812 85.6615625 60.00390625 86.453125 C63.31420312 94.91709974 66.22688802 103.53319592 69.0078125 112.18359375 C69.74445849 114.27462429 70.5765985 116.33251451 71.45703125 118.3671875 C73.04052143 122.09540489 74.32989213 125.83414229 75.5625 129.6875 C77.08477857 134.55518524 77.08477857 134.55518524 79.15234375 139.20703125 C80 141 80 141 80 145 C68.78 145 57.56 145 46 145 C45.731875 142.298125 45.46375 139.59625 45.1875 136.8125 C44.36212252 129.03720494 42.9572653 121.57651083 41 114 C39.48088093 108.00243898 38.72003192 102.2494533 38.28515625 96.07421875 C37.91498671 92.08348684 37.1922246 88.2036858 36.40234375 84.27734375 C36 82 36 82 36 79 C32.37 79 28.74 79 25 79 C25.11926632 84.63773024 25.24356894 90.27532005 25.37231445 95.9128418 C25.41532808 97.82622345 25.45702283 99.73963526 25.49731445 101.65307617 C25.68571994 113.85001351 25.68571994 113.85001351 26.53515625 126.01171875 C27.09169051 131.98393934 27 138.00190454 27 144 C18.09 144 9.18 144 0 144 C-3.37508485 136.12480201 -3.37508485 136.12480201 -3.3742218 132.99717712 C-3.38123611 132.28519669 -3.38825043 131.57321625 -3.39547729 130.83966064 C-3.38783356 130.08296082 -3.38018982 129.32626099 -3.37231445 128.54663086 C-3.37596512 127.72882645 -3.37961578 126.91102203 -3.38337708 126.06843567 C-3.39146712 123.36702538 -3.37784875 120.66621979 -3.36328125 117.96484375 C-3.36276093 116.0480601 -3.36328525 114.13127592 -3.36479187 112.2144928 C-3.36470211 108.17864078 -3.35429402 104.14298825 -3.33618164 100.10717773 C-3.31396279 95.05732207 -3.31304701 90.00776669 -3.31944466 84.95787621 C-3.34637772 56.62445312 -3.13208402 28.18875619 0 0 Z " fill="#F8F8F8" transform="translate(725,45)"/>
<path d="M0 0 C2.64590531 -0.02734001 5.29151934 -0.04700053 7.9375 -0.0625 C8.67291016 -0.07087891 9.40832031 -0.07925781 10.16601562 -0.08789062 C10.90400391 -0.09111328 11.64199219 -0.09433594 12.40234375 -0.09765625 C13.06741943 -0.10289307 13.73249512 -0.10812988 14.41772461 -0.11352539 C18.29254174 0.05682442 22.1451624 0.57168471 26 1 C25.67 17.5 25.34 34 25 51 C32.70434647 50.9817984 32.70434647 50.9817984 35.05053711 47.43408203 C35.5378833 46.30341309 36.02522949 45.17274414 36.52734375 44.0078125 C36.80279526 43.39393677 37.07824677 42.78006104 37.36204529 42.14758301 C38.25008048 40.15160923 39.09330447 38.13985474 39.9375 36.125 C40.53864351 34.75429496 41.14298855 33.38498966 41.75048828 32.01708984 C42.95686983 29.29315497 44.14850027 26.56353744 45.32861328 23.828125 C47.55155372 18.70049352 49.95257466 13.66081995 52.375 8.625 C53.09179567 7.11749632 53.80802022 5.60972081 54.5234375 4.1015625 C55.01070313 3.07804687 55.49796875 2.05453125 56 1 C58.79173055 0.97309896 61.58320348 0.95320947 64.375 0.9375 C65.1690625 0.92912109 65.963125 0.92074219 66.78125 0.91210938 C72.7734375 0.88671875 72.7734375 0.88671875 75 2 C74.4179329 5.51327356 73.51043428 8.33012579 71.8828125 11.4921875 C71.44582031 12.35134766 71.00882812 13.21050781 70.55859375 14.09570312 C69.84896484 15.47145508 69.84896484 15.47145508 69.125 16.875 C64.48935428 25.99258966 60.00676302 35.17103468 55.61767578 44.40966797 C55.18696777 45.31604004 54.75625977 46.22241211 54.3125 47.15625 C53.91675781 48.00832031 53.52101563 48.86039063 53.11328125 49.73828125 C52 52 52 52 50 55.09375 C48.43477428 59.64268725 50.23816283 62.68720299 52 67 C52.75221745 69.08587867 53.49645585 71.17464527 54.234375 73.265625 C55.07261261 75.59385949 55.91116714 77.9219799 56.75 80.25 C60.20724119 89.87840089 63.57674694 99.52671614 66.75488281 109.25097656 C68.18119114 113.60563474 69.68414543 117.91327475 71.31469727 122.19580078 C72.24293897 124.63958639 73.11962824 127.10112728 74 129.5625 C75.15355802 132.76140512 76.35928527 135.89713176 77.75 139 C79 142 79 142 79 145 C68.11 145 57.22 145 46 145 C43.09091467 131.03639041 40.43657801 117.09114435 38.25 103 C38.14354156 102.31736084 38.03708313 101.63472168 37.92739868 100.93139648 C36.79390896 93.63364316 35.74129134 86.34845327 35 79 C31.37 79 27.74 79 24 79 C24.06058594 80.32950684 24.12117188 81.65901367 24.18359375 83.02880859 C24.41130513 88.04962698 24.63363484 93.07067272 24.85449219 98.09179688 C24.95007197 100.24843604 25.04703407 102.40501447 25.14550781 104.56152344 C25.74544275 117.72336139 26.11037682 130.82376677 26 144 C17.09 144 8.18 144 -1 144 C-3.19248307 137.42255079 -4.44434381 133.27634192 -4.38818359 126.734375 C-4.39344055 125.96011169 -4.39869751 125.18584839 -4.40411377 124.38812256 C-4.41724202 121.84187179 -4.40857347 119.29625669 -4.3984375 116.75 C-4.40046675 114.93294153 -4.40338519 113.11588386 -4.40713501 111.29882812 C-4.41155429 107.47583316 -4.40516405 103.65304852 -4.39111328 99.83007812 C-4.3744066 95.06509301 -4.38389428 90.30062506 -4.40145493 85.53565979 C-4.49018879 56.96887972 -3.68753013 28.36126624 0 0 Z " fill="#F9F9F9" transform="translate(275,45)"/>
<path d="M0 0 C3.69446011 -0.09279339 7.38502934 -0.12316884 11.08056641 -0.13867188 C12.32128906 -0.15929688 13.56201172 -0.17992187 14.84033203 -0.20117188 C22.02892426 -0.23161589 28.77176517 0.05005554 35.39306641 3.11132812 C37.89306641 5.61132812 37.89306641 5.61132812 39.39306641 8.11132812 C40.38306641 9.59632812 40.38306641 9.59632812 41.39306641 11.11132812 C41.56499714 13.94116011 41.62515077 16.67014685 41.58837891 19.49804688 C41.58554901 20.31505569 41.58271912 21.13206451 41.57980347 21.97383118 C41.56861181 24.58231272 41.54350931 27.19045043 41.51806641 29.79882812 C41.50803528 31.56770337 41.49890966 33.33658401 41.49072266 35.10546875 C41.47037763 39.44099412 41.43122774 43.77577642 41.39306641 48.11132812 C32.48306641 47.78132813 23.57306641 47.45132813 14.39306641 47.11132812 C14.39306641 41.17132813 14.39306641 35.23132813 14.39306641 29.11132812 C7.95806641 29.60632813 7.95806641 29.60632813 1.39306641 30.11132812 C-0.60447421 36.10394998 0.37446177 42.46398093 1.15820312 48.63720703 C1.40532095 51.24042117 1.44164377 53.78221828 1.42431641 56.39648438 C1.41980469 57.28343994 1.41529297 58.17039551 1.41064453 59.08422852 C1.40484375 59.75317139 1.39904297 60.42211426 1.39306641 61.11132812 C2.07183838 61.13114746 2.75061035 61.1509668 3.44995117 61.17138672 C6.61878565 61.2684767 9.78711812 61.37738434 12.95556641 61.48632812 C14.02226562 61.51726562 15.08896484 61.54820313 16.18798828 61.58007812 C24.69690651 61.8848752 32.97813133 62.86645898 41.39306641 64.11132812 C41.44459999 71.27478898 41.4791414 78.43820054 41.50292969 85.60180664 C41.51286697 88.02890814 41.52642142 90.45599806 41.54394531 92.88305664 C41.62863845 104.93190083 41.64291742 116.99051315 40.83447266 129.01757812 C40.79996002 129.86744797 40.76544739 130.71731781 40.72988892 131.59294128 C40.44373874 134.97267642 40.18973308 137.24079895 37.85327148 139.79388428 C29.06860839 146.55583856 19.1314654 147.05585746 8.39306641 146.11132812 C7.11044922 146.08554688 5.82783203 146.05976563 4.50634766 146.03320312 C-3.92329271 145.79454799 -10.29730903 144.33184179 -17.60693359 140.11132812 C-18.61755859 139.59570312 -19.62818359 139.08007812 -20.66943359 138.54882812 C-27.571439 129.86566004 -25.27270175 111.95939414 -24.15380859 101.40039062 C-23.70682298 97.62639123 -23.18017356 93.8680972 -22.60693359 90.11132812 C-20.81563901 90.05592726 -19.02380617 90.01792286 -17.23193359 89.98632812 C-16.23419922 89.963125 -15.23646484 89.93992187 -14.20849609 89.91601562 C-9.62270534 90.16470276 -5.11027873 91.2106591 -0.60693359 92.11132812 C-0.60693359 99.04132813 -0.60693359 105.97132813 -0.60693359 113.11132812 C2.42494141 113.32789063 2.42494141 113.32789063 5.51806641 113.54882812 C9.90744137 113.86235491 14.03136242 114.38437746 18.39306641 115.11132812 C18.39306641 103.56132812 18.39306641 92.01132813 18.39306641 80.11132812 C5.52306641 79.45132813 -7.34693359 78.79132813 -20.60693359 78.11132812 C-21.74237631 66.75690099 -22.29592613 55.50793062 -22.60693359 44.11132812 C-22.64071106 42.97259247 -22.64071106 42.97259247 -22.6751709 41.81085205 C-22.8244051 36.70921083 -22.93425765 31.60862298 -23.00289917 26.50524902 C-23.0304951 24.79012437 -23.06845077 23.07513383 -23.11697388 21.36047363 C-23.183059 18.9292259 -23.2100393 16.50037789 -23.22802734 14.06835938 C-23.25581268 13.3390773 -23.28359802 12.60979523 -23.31222534 11.8584137 C-23.29581353 7.74658797 -22.73208951 6.24967342 -19.94042969 3.16381836 C-16.46873431 1.02623648 -14.66806798 0.444664 -10.64990234 0.31445312 C-9.51472168 0.26869141 -8.37954102 0.22292969 -7.20996094 0.17578125 C-4.80631102 0.13278331 -2.40289019 0.07416529 0 0 Z " fill="#FBFBFB" transform="translate(215.60693359375,43.888671875)"/>
<path d="M0 0 C0.96424393 0.01978409 1.92848785 0.03956818 2.92195129 0.05995178 C4.95879359 0.1077532 6.99537339 0.16820259 9.03149414 0.24047852 C12.11684129 0.34670292 15.20044051 0.40597425 18.28710938 0.45898438 C20.27481596 0.51150791 22.26245268 0.56676052 24.25 0.625 C25.6130854 0.65037086 25.6130854 0.65037086 27.00370789 0.67625427 C34.43378432 0.978752 38.41866407 2.66893182 45.95703125 5.41015625 C45.95703125 27.19015625 45.95703125 48.97015625 45.95703125 71.41015625 C38.95703125 72.41015625 38.95703125 72.41015625 28.95703125 72.41015625 C28.95703125 59.54015625 28.95703125 46.67015625 28.95703125 33.41015625 C21.03703125 33.41015625 13.11703125 33.41015625 4.95703125 33.41015625 C4.95703125 36.05015625 4.95703125 38.69015625 4.95703125 41.41015625 C4.65749972 43.41549711 4.32674817 45.41656138 3.95703125 47.41015625 C2.36091205 63.13527473 1.76052347 78.92486368 1.76953125 94.72265625 C1.76871552 95.39697693 1.76789978 96.07129761 1.76705933 96.76605225 C1.76806314 104.05800259 1.97173186 111.18199989 2.95703125 118.41015625 C6.41569917 118.2716492 9.873864 118.12310898 13.33203125 117.97265625 C14.316875 117.93333984 15.30171875 117.89402344 16.31640625 117.85351562 C17.25742187 117.81162109 18.1984375 117.76972656 19.16796875 117.7265625 C20.03728027 117.68990479 20.9065918 117.65324707 21.80224609 117.61547852 C24.00535745 117.53614081 24.00535745 117.53614081 25.95703125 116.41015625 C26.28703125 108.82015625 26.61703125 101.23015625 26.95703125 93.41015625 C32.56703125 93.41015625 38.17703125 93.41015625 43.95703125 93.41015625 C44.74143046 96.54775309 45.07996932 98.59471843 45.07055664 101.71972656 C45.07044334 102.98058075 45.07044334 102.98058075 45.07032776 104.26690674 C45.06516647 105.16496033 45.06000519 106.06301392 45.0546875 106.98828125 C45.05327255 107.91485535 45.0518576 108.84142944 45.05039978 109.79608154 C45.04480949 112.75080617 45.03225875 115.70545458 45.01953125 118.66015625 C45.014515 120.66536349 45.00995231 122.67057192 45.00585938 124.67578125 C44.99484324 129.58726888 44.97758525 134.49869965 44.95703125 139.41015625 C43.20900979 140.22690421 41.45852936 141.03839076 39.70703125 141.84765625 C38.7325 142.30011719 37.75796875 142.75257813 36.75390625 143.21875 C22.38073423 149.34140009 -0.73503191 146.29016651 -15.265625 141.6171875 C-18.83062191 140.06703128 -20.60566047 139.16548144 -22.56713867 135.77758789 C-23.59970805 132.4504199 -24.24931259 129.22602404 -24.79296875 125.78515625 C-25.01992432 124.57907715 -25.24687988 123.37299805 -25.48071289 122.13037109 C-27.23185178 112.14642425 -27.73398443 102.50098084 -27.04296875 92.41015625 C-26.95595703 90.68345703 -26.95595703 90.68345703 -26.8671875 88.921875 C-26.59901601 84.61535635 -26.18382558 80.36043308 -25.55102539 76.09130859 C-24.39274143 68.17821682 -23.88782864 60.45980961 -23.875 52.4609375 C-23.87091125 51.50659317 -23.86682251 50.55224884 -23.86260986 49.56898499 C-23.85035312 45.62492494 -23.84487563 41.68192191 -23.88842773 37.73803711 C-24.01923119 23.65409341 -23.45885359 13.39873376 -13.43164062 2.59716797 C-9.33553191 -0.63124713 -5.00420674 -0.19133562 0 0 Z " fill="#FAFAFA" transform="translate(667.04296875,44.58984375)"/>
<path d="M0 0 C21.45 0.33 42.9 0.66 65 1 C65 13.87 65 26.74 65 40 C51.14 40 37.28 40 23 40 C23 47.92 23 55.84 23 64 C33.23 64 43.46 64 54 64 C55 71 55 71 55 82 C45.43 82 35.86 82 26 82 C26 91.9 26 101.8 26 112 C28.701875 111.979375 31.40375 111.95875 34.1875 111.9375 C44.81820411 111.89886003 55.38528278 112.4300823 66 113 C66 123.23 66 133.46 66 144 C32.34 143.505 32.34 143.505 -2 143 C-2.04010881 117.49971033 -2.04010881 117.49971033 -2.04882812 106.4296875 C-2.05475115 98.94595611 -2.06167144 91.46223723 -2.07543945 83.97851562 C-2.20204338 13.21226029 -2.20204338 13.21226029 0 0 Z " fill="#FCFCFC" transform="translate(815,46)"/>
<path d="M0 0 C0.95716919 -0.00095673 1.91433838 -0.00191345 2.9005127 -0.00289917 C4.90714586 -0.00357413 6.91378129 -0.00176808 8.92041016 0.00244141 C11.96131374 0.0077994 15.00206966 0.00247292 18.04296875 -0.00390625 C20.00781282 -0.00324535 21.9726568 -0.00196393 23.9375 0 C24.83053833 -0.00202423 25.72357666 -0.00404846 26.64367676 -0.00613403 C32.96347747 0.01690675 39.18462738 0.47205466 45.46875 1.1328125 C45.32809478 4.67471102 45.18086075 8.21628039 45.03125 11.7578125 C44.99193359 12.75683594 44.95261719 13.75585938 44.91210938 14.78515625 C44.87021484 15.75839844 44.82832031 16.73164062 44.78515625 17.734375 C44.74849854 18.62463379 44.71184082 19.51489258 44.67407227 20.43212891 C44.45211428 23.35162865 43.95009788 26.24472519 43.46875 29.1328125 C38.18875 29.1328125 32.90875 29.1328125 27.46875 29.1328125 C27.49904297 30.4439502 27.52933594 31.75508789 27.56054688 33.10595703 C28.19818601 61.24292693 28.56615648 89.36446088 28.53125 117.5078125 C28.52996597 118.55055202 28.52996597 118.55055202 28.52865601 119.61435699 C28.51739178 128.12054661 28.49438815 136.626645 28.46875 145.1328125 C17.24875 145.1328125 6.02875 145.1328125 -5.53125 145.1328125 C-5.55460133 139.5907637 -5.57438802 134.04889536 -5.58618164 128.50683594 C-5.59111408 126.63378308 -5.59786065 124.76073385 -5.60668945 122.88769531 C-5.65945464 111.37867626 -5.45434139 99.91820857 -4.92459106 88.42102051 C-4.37807675 76.32989266 -4.18163872 64.23358136 -3.96875 52.1328125 C-3.92538308 49.78515157 -3.88176434 47.43749527 -3.83789062 45.08984375 C-3.73279125 39.43754984 -3.63073457 33.78520788 -3.53125 28.1328125 C-5.201875 28.1946875 -5.201875 28.1946875 -6.90625 28.2578125 C-11.53125 28.1328125 -11.53125 28.1328125 -21.53125 26.1328125 C-21.53125 17.8828125 -21.53125 9.6328125 -21.53125 1.1328125 C-14.25466067 0.47130438 -7.26531092 -0.01646813 0 0 Z " fill="#FCFCFC" transform="translate(61.53125,44.8671875)"/>
<path d="M0 0 C0.83501038 -0.00249756 1.67002075 -0.00499512 2.53033447 -0.00756836 C4.96167001 -0.01352883 7.39288141 -0.01193669 9.82421875 -0.0078125 C10.54561539 -0.00979645 11.26701202 -0.0117804 12.01026917 -0.01382446 C17.17335174 0.00925452 22.18802307 0.49023178 27.3125 1.125 C26.75512917 10.46985568 26.12858851 19.79827419 25.3125 29.125 C20.3625 29.125 15.4125 29.125 10.3125 29.125 C10.3125 67.405 10.3125 105.685 10.3125 145.125 C-0.5775 145.125 -11.4675 145.125 -22.6875 145.125 C-22.82184228 117.18180668 -22.59385674 89.2522718 -22.1875 61.3125 C-22.17554218 60.49005798 -22.16358437 59.66761597 -22.15126419 58.82025146 C-22.00200752 48.58841711 -21.84682052 38.35668267 -21.6875 28.125 C-27.9575 27.795 -34.2275 27.465 -40.6875 27.125 C-40.83556378 9.6534738 -40.83556378 9.6534738 -39.6875 1.125 C-26.46209126 0.17304256 -13.25354295 0.01390022 0 0 Z " fill="#FBFBFB" transform="translate(443.6875,44.875)"/>
<path d="M0 0 C4.29 0 8.58 0 13 0 C18.41718688 15.70984196 18.53169879 30.49370646 18 47 C8.595 47.495 8.595 47.495 -1 48 C-1.12096956 31.96481292 -0.84363129 16.01392958 0 0 Z " fill="#212121" transform="translate(134,77)"/>
<path d="M0 0 C3.96 0 7.92 0 12 0 C13 3 14 6 15 9 C15.25354248 9.59240479 15.50708496 10.18480957 15.76831055 10.79516602 C18.66981712 18.10600143 18.33678309 25.29595152 18.1875 33.0625 C18.17241956 34.41860486 18.15873712 35.77472602 18.14648438 37.13085938 C18.11136101 40.42074778 18.05756219 43.71042769 18 47 C8.595 47.495 8.595 47.495 -1 48 C-1.13572439 31.96944127 -0.75166155 16.01307554 0 0 Z " fill="#222222" transform="translate(584,77)"/>
<path d="M0 0 C12 0 12 0 16 2 C19.42963146 10.02380195 19.37650927 19.52966752 19.5625 28.125 C19.60149414 29.13264404 19.64048828 30.14028809 19.68066406 31.1784668 C19.70655402 38.14816158 19.70655402 38.14816158 16.77734375 41.6796875 C13 43 13 43 0 43 C0 28.81 0 14.62 0 0 Z " fill="#232323" transform="translate(909,62)"/>
<path d="M0 0 C12 0 12 0 16 2 C19.10647887 10.33844328 19.22958223 18.96071614 19.3125 27.75 C19.34150391 28.79027344 19.37050781 29.83054687 19.40039062 30.90234375 C19.40876953 31.89878906 19.41714844 32.89523438 19.42578125 33.921875 C19.44036377 34.82518555 19.45494629 35.72849609 19.4699707 36.65917969 C19 39 19 39 17.14135742 40.77441406 C11.80978685 43.82588873 6.03869706 43 0 43 C0 28.81 0 14.62 0 0 Z " fill="#222222" transform="translate(498,62)"/>
<path d="M0 0 C3.63 0 7.26 0 11 0 C11 0.66 11 1.32 11 2 C8.03 2 5.06 2 2 2 C2 16.85 2 31.7 2 47 C1.67 47 1.34 47 1 47 C-0.17415915 31.33755566 -0.10483203 15.69899936 0 0 Z " fill="#565656" transform="translate(299,124)"/>
<path d="M0 0 C0 0.33 0 0.66 0 1 C-0.65226563 1.00257812 -1.30453125 1.00515625 -1.9765625 1.0078125 C-6.84063766 1.22303706 -10.04878921 1.41383187 -13.5 5.0625 C-14.325 6.031875 -15.15 7.00125 -16 8 C-16.66 8 -17.32 8 -18 8 C-14.58458212 -0.69379098 -8.22173607 -0.51835814 0 0 Z " fill="#D2D2D2" transform="translate(668,45)"/>
</svg>
