<?xml version="1.0" encoding="UTF-8"?>
<svg version="1.1" xmlns="http://www.w3.org/2000/svg" width="985" height="219">
<path d="M0 0 C325.05 0 650.1 0 985 0 C985 72.27 985 144.54 985 219 C659.95 219 334.9 219 0 219 C0 146.73 0 74.46 0 0 Z " fill="#FCFCFC" transform="translate(0,0)"/>
<path d="M0 0 C56.78947368 0 56.78947368 0 68 9 C77.03297031 19.66089024 74.12619153 33.91243662 73.25 46.875 C73.15755005 48.49764771 73.15755005 48.49764771 73.06323242 50.15307617 C72.59144466 56.47738371 71.82449778 60.86525761 68 66 C64.33558863 67.75586378 62.08834772 68 58 68 C58 68.66 58 69.32 58 70 C58.57621094 70.27585937 59.15242187 70.55171875 59.74609375 70.8359375 C61.96775576 71.983347 64.00450024 73.20541635 66.0625 74.625 C66.73410156 75.07101563 67.40570312 75.51703125 68.09765625 75.9765625 C73.17835977 81.38067835 73.43356549 88.32517671 73.328125 95.3359375 C73.32625183 96.21416168 73.32437866 97.09238586 73.32244873 97.9972229 C73.31575777 99.85121473 73.30190255 101.70519316 73.28125 103.55908203 C73.25047168 106.3324976 73.24030248 109.10533767 73.234375 111.87890625 C73.18403431 123.27954776 72.75170159 134.62483197 72 146 C67.85418113 146.02886751 63.70838784 146.04675327 59.5625 146.0625 C58.37849609 146.07087891 57.19449219 146.07925781 55.97460938 146.08789062 C54.84990234 146.09111328 53.72519531 146.09433594 52.56640625 146.09765625 C51.00321655 146.10551147 51.00321655 146.10551147 49.40844727 146.11352539 C47 146 47 146 46 145 C45.83891905 142.18232836 45.74003064 139.38680539 45.68359375 136.56640625 C45.66281265 135.70047348 45.64203156 134.83454071 45.62062073 133.94236755 C45.57722532 132.09371086 45.53620028 130.24499729 45.49731445 128.39624023 C45.43899133 125.63315247 45.37353091 122.87031398 45.30664062 120.10742188 C45.04223789 108.73656945 44.94497875 97.37367906 45 86 C44.401875 85.70222656 43.80375 85.40445313 43.1875 85.09765625 C41.45063135 84.22612037 39.72351107 83.33516202 38 82.4375 C34.91816892 80.83752449 34.91816892 80.83752449 31 80 C31 101.45 31 122.9 31 145 C20.77 145 10.54 145 0 145 C0 97.15 0 49.3 0 0 Z " fill="#060606" transform="translate(468,32)"/>
<path d="M0 0 C58.81362725 0 58.81362725 0 68 8 C76.27053404 18.21848417 74.32948956 29.41052503 73.03125 41.76367188 C72.8971875 42.97603516 72.763125 44.18839844 72.625 45.4375 C72.43550781 47.29665039 72.43550781 47.29665039 72.2421875 49.19335938 C72.11328125 50.38638672 71.984375 51.57941406 71.8515625 52.80859375 C71.73635254 53.87907959 71.62114258 54.94956543 71.50244141 56.05249023 C71.00269462 58.98419235 70.34608818 61.34929642 69 64 C66.3984375 65.14453125 66.3984375 65.14453125 63.375 65.8125 C61.87066406 66.16248047 61.87066406 66.16248047 60.3359375 66.51953125 C59.56507813 66.67808594 58.79421875 66.83664063 58 67 C61.328423 70.48764142 64.90749052 73.12247246 68.87890625 75.828125 C74.80107123 81.89207294 74.37779897 89.44604475 74.3125 97.4296875 C74.3021875 98.11901367 74.291875 98.80833984 74.28125 99.51855469 C74.24996835 101.62713351 74.24025452 103.73496144 74.234375 105.84375 C74.19499479 111.67159088 74.01248001 117.24782663 73 123 C72.86428399 124.72444858 72.75826769 126.45151924 72.68359375 128.1796875 C72.64169922 129.1078125 72.59980469 130.0359375 72.55664062 130.9921875 C72.51732422 131.94351563 72.47800781 132.89484375 72.4375 133.875 C72.37272461 135.33679688 72.37272461 135.33679688 72.30664062 136.828125 C72.20117726 139.21862802 72.09905825 141.60922444 72 144 C69.45724451 145.27137774 67.65191799 145.129425 64.80859375 145.1328125 C63.78185547 145.13410156 62.75511719 145.13539063 61.69726562 145.13671875 C60.62154297 145.13285156 59.54582031 145.12898437 58.4375 145.125 C57.35791016 145.12886719 56.27832031 145.13273438 55.16601562 145.13671875 C53.6278418 145.13478516 53.6278418 145.13478516 52.05859375 145.1328125 C51.11298584 145.13168457 50.16737793 145.13055664 49.19311523 145.12939453 C47 145 47 145 46 144 C45.86381288 141.35115092 45.78883478 138.72500995 45.75390625 136.07421875 C45.72270121 134.40144162 45.69111087 132.72867163 45.65917969 131.0559082 C45.64383179 130.17778473 45.62848389 129.29966125 45.6126709 128.39492798 C45.32175696 110.58562588 45.32175696 110.58562588 44.25 92.8125 C44.20045166 92.04446045 44.15090332 91.2764209 44.09985352 90.48510742 C43.75341906 87.02359257 43.21635534 85.23885945 40.859375 82.63671875 C37.47494326 80.54808728 37.47494326 80.54808728 31 79 C31 100.45 31 121.9 31 144 C15.655 144.495 15.655 144.495 0 145 C0 97.15 0 49.3 0 0 Z " fill="#050505" transform="translate(879,33)"/>
<path d="M0 0 C6.1197887 -0.0248244 12.23954771 -0.04291879 18.359375 -0.05493164 C20.43880728 -0.05994271 22.51823607 -0.06675335 24.59765625 -0.07543945 C27.59636297 -0.08764683 30.59502286 -0.09326071 33.59375 -0.09765625 C34.97548401 -0.10539818 34.97548401 -0.10539818 36.38513184 -0.11329651 C41.68503511 -0.11375124 46.75541013 0.22669058 52 1 C57.440907 48.12536924 58.52019378 95.6070892 59 143 C55.5469827 143.93391287 52.5102756 144.11524645 48.921875 144.09765625 C47.76171875 144.09443359 46.6015625 144.09121094 45.40625 144.08789062 C44.1996875 144.07951172 42.993125 144.07113281 41.75 144.0625 C40.52796875 144.05798828 39.3059375 144.05347656 38.046875 144.04882812 C35.03120054 144.03704815 32.01562502 144.02059853 29 144 C28.70948982 139.82352985 28.42497142 135.64670284 28.14550781 131.46948242 C28.05006552 130.05466258 27.95311223 128.63994369 27.85449219 127.2253418 C27.22210091 118.13633036 26.89602727 109.11710895 27 100 C20.73 100 14.46 100 8 100 C7.896875 102.2275 7.79375 104.455 7.6875 106.75 C7.00789349 119.54530465 5.43022492 132.27189771 4 145 C-2.27 145 -8.54 145 -15 145 C-15.30746658 129.8532255 -14.10070208 115.06704226 -12.625 100 C-12.40030243 97.63288256 -12.17634036 95.26569517 -11.953125 92.8984375 C-8.68358084 58.45564906 -8.68358084 58.45564906 -6.0625 42.1875 C-5.71263853 39.96498573 -5.36369394 37.74232695 -5.015625 35.51953125 C-4.84482422 34.4310791 -4.67402344 33.34262695 -4.49804688 32.22119141 C-3.73367986 27.27753536 -3.01719749 22.32746971 -2.3125 17.375 C-2.19334229 16.54121826 -2.07418457 15.70743652 -1.95141602 14.84838867 C-1.25119505 9.90437361 -0.61478685 4.95535756 0 0 Z " fill="#050505" transform="translate(564,33)"/>
<path d="M0 0 C5.31615876 -0.02500545 10.63228212 -0.04300227 15.94848633 -0.05493164 C17.75122678 -0.05991292 19.5539633 -0.06670036 21.35668945 -0.07543945 C31.6269872 -0.12392461 41.77153425 -0.04008359 52 1 C52.29316591 4.74988426 52.58439326 8.49991657 52.875 12.25 C52.96450928 13.40266357 53.05401855 14.55532715 53.14624023 15.74291992 C53.635177 22.08884942 54.10497852 28.43549458 54.54296875 34.78515625 C54.67372803 36.67282715 54.67372803 36.67282715 54.80712891 38.59863281 C54.97494588 41.0391986 55.14006681 43.47995154 55.30224609 45.92089844 C55.37910645 47.03625977 55.4559668 48.15162109 55.53515625 49.30078125 C55.63389038 50.77285034 55.63389038 50.77285034 55.73461914 52.2746582 C55.94054858 54.94958767 55.94054858 54.94958767 56.51147461 57.32763672 C57.18766378 61.02657058 57.21576388 64.70850945 57.28125 68.45703125 C57.29965942 69.27765549 57.31806885 70.09827972 57.33703613 70.94377136 C57.39553778 73.56661077 57.448318 76.18951799 57.5 78.8125 C57.5689877 82.23577278 57.64134275 85.65893811 57.71875 89.08203125 C57.74733849 90.34782516 57.74733849 90.34782516 57.77650452 91.63919067 C57.90853076 96.87886124 58.16235805 102.09594637 58.52734375 107.32421875 C59.04101688 114.89255854 59.11538748 122.41674894 59.0625 130 C59.05798828 131.26328125 59.05347656 132.5265625 59.04882812 133.828125 C59.03724727 136.88547061 59.02094478 139.94270675 59 143 C55.55301173 144.03042947 52.29074718 144.19794703 48.703125 144.31640625 C46.89521484 144.37924805 46.89521484 144.37924805 45.05078125 144.44335938 C43.79652344 144.48267578 42.54226562 144.52199219 41.25 144.5625 C39.98027344 144.60568359 38.71054688 144.64886719 37.40234375 144.69335938 C34.26833635 144.79939722 31.13425067 144.90146058 28 145 C26.80611597 113.67959553 26.80611597 113.67959553 27 100 C26.29875 100.01160156 25.5975 100.02320313 24.875 100.03515625 C23.92625 100.04417969 22.9775 100.05320312 22 100.0625 C21.071875 100.07410156 20.14375 100.08570313 19.1875 100.09765625 C15.40011853 99.98162128 11.75371317 99.51370859 8 99 C7.96261719 100.05832031 7.92523438 101.11664063 7.88671875 102.20703125 C7.2940078 116.55256378 5.68992577 130.74722979 4 145 C-2.27 145 -8.54 145 -15 145 C-15.24497094 132.85282007 -14.29258688 120.96160489 -13.1875 108.875 C-13.00032304 106.79411561 -12.81323076 104.71322361 -12.6262207 102.63232422 C-12.17255549 97.61468824 -11.70884103 92.59804778 -11.24023438 87.58178711 C-11.03326813 85.35753093 -10.82990342 83.13300466 -10.62890625 80.90820312 C-8.92663432 62.31981399 -6.17956512 43.8884284 -3.42456055 25.43212891 C-3.2730806 24.41592972 -3.12160065 23.39973053 -2.9655304 22.35273743 C-2.68007273 20.44263519 -2.39298857 18.53277499 -2.10392761 16.62321472 C-1.27521916 11.09144587 -0.58483831 5.56301873 0 0 Z " fill="#040404" transform="translate(114,33)"/>
<path d="M0 0 C8.58 0 17.16 0 26 0 C26.09957391 11.74349849 25.75643702 23.34661053 25 35.0625 C24.90316832 36.62301732 24.80681243 38.18356423 24.7109375 39.74414062 C24.47940491 43.49644869 24.24156702 47.24832291 24 51 C26.97 51 29.94 51 33 51 C33.24169922 50.19965332 33.48339844 49.39930664 33.73242188 48.57470703 C35.29665642 44.1633969 37.25786045 40.0209676 39.28125 35.8046875 C39.69540161 34.93482208 40.10955322 34.06495667 40.53625488 33.16873169 C41.85424922 30.40258874 43.17709511 27.63879729 44.5 24.875 C45.38963377 23.00926278 46.27895992 21.14337884 47.16796875 19.27734375 C48.79700124 15.8609411 50.42685469 12.44493893 52.06054688 9.03076172 C52.3876062 8.34714569 52.71466553 7.66352966 53.05163574 6.959198 C54.01723821 4.96438808 55.0088739 2.9822522 56 1 C62.27 1 68.54 1 75 1 C75 4.68937538 74.90692247 5.68234121 73.35107422 8.73608398 C72.99004608 9.45461044 72.62901794 10.1731369 72.25704956 10.91343689 C71.66188034 12.06810204 71.66188034 12.06810204 71.0546875 13.24609375 C70.44344528 14.45653099 70.44344528 14.45653099 69.81985474 15.69142151 C68.51240563 18.2773321 67.19422953 20.85758236 65.875 23.4375 C59.018355 36.88078418 59.018355 36.88078418 52.390625 50.4375 C51.92430664 51.41460937 51.45798828 52.39171875 50.97753906 53.3984375 C49.39642835 57.60630856 49.75073014 60.76675984 51 65 C51.27714844 65.98097656 51.55429687 66.96195312 51.83984375 67.97265625 C53.22674762 72.46756158 54.66980972 76.72238448 57.125 80.75 C58.86447461 83.76508932 59.56100166 86.23437705 60.35253906 89.578125 C61.67699728 94.53235785 63.54685575 99.31447959 65.3125 104.125 C66.12511719 106.35933238 66.93761805 108.59370708 67.75 110.828125 C68.33394531 112.42817383 68.33394531 112.42817383 68.9296875 114.06054688 C70.62361054 118.71265303 72.28071821 123.37751726 73.9375 128.04296875 C74.67381822 130.09220732 75.42485056 132.13619574 76.1875 134.17578125 C76.55875 135.16964844 76.93 136.16351563 77.3125 137.1875 C77.63863281 138.04730469 77.96476562 138.90710938 78.30078125 139.79296875 C79 142 79 142 79 145 C68.11 145 57.22 145 46 145 C44.5645289 136.99305404 43.1297111 128.98604077 41.70127869 120.97784424 C41.03588778 117.24857624 40.36927746 113.51953569 39.69970703 109.79101562 C39.05478438 106.19947641 38.41323047 102.60735029 37.77400208 99.0147934 C37.52960445 97.64466692 37.28399632 96.2747558 37.03715515 94.90506744 C36.69148251 92.98578951 36.35052157 91.06566477 36.00976562 89.14550781 C35.81435181 88.05296692 35.61893799 86.96042603 35.41760254 85.83477783 C35 83 35 83 35 79 C31.37 79 27.74 79 24 79 C24.06058594 80.22291748 24.12117188 81.44583496 24.18359375 82.70581055 C24.41239134 87.35205307 24.63434587 91.99860389 24.85449219 96.64526367 C24.94970327 98.63591019 25.04663965 100.62647512 25.14550781 102.61694336 C25.82972843 116.42353798 26.12876415 130.176632 26 144 C16.95696626 144.13589697 8.01503015 143.63342746 -1 143 C-3.2951447 137.54893047 -4.44078677 133.02807992 -4.38818359 127.07910156 C-4.39336974 126.32853139 -4.39855589 125.57796122 -4.40389919 124.80464649 C-4.41686633 122.33310012 -4.40815914 119.86217831 -4.3984375 117.390625 C-4.40152651 115.63675241 -4.40559054 113.88288131 -4.41056824 112.12901306 C-4.41872967 107.46315009 -4.40553944 102.79759155 -4.38591385 98.13177109 C-4.37500647 95.25170939 -4.36970176 92.3716869 -4.36593628 89.49160767 C-4.3183424 59.6239543 -4.2324062 29.62684339 0 0 Z " fill="#060606" transform="translate(265,33)"/>
<path d="M0 0 C8.58 0 17.16 0 26 0 C26.04960931 11.70159634 25.87753422 23.36780735 25.5 35.0625 C25.45158347 36.62303946 25.40340553 38.18358635 25.35546875 39.74414062 C25.23971066 43.49618275 25.12079017 47.24811608 25 51 C27.97 51 30.94 51 34 51 C34.11730469 50.26136719 34.23460937 49.52273437 34.35546875 48.76171875 C34.99745695 46.0108966 35.85832826 44.21210847 37.3125 41.8125 C39.59171107 37.86143209 41.32147345 33.89361839 42.953125 29.640625 C44.78738961 25.01389784 46.90613833 20.51381655 49 16 C49.66 16 50.32 16 51 16 C51.0928125 14.7934375 51.0928125 14.7934375 51.1875 13.5625 C52.26536993 8.8364549 54.51591419 5.12486573 57 1 C59.79173055 0.97309896 62.58320348 0.95320947 65.375 0.9375 C66.1690625 0.92912109 66.963125 0.92074219 67.78125 0.91210938 C73.7734375 0.88671875 73.7734375 0.88671875 76 2 C74.66083466 5.44329274 73.1892336 8.77529557 71.57421875 12.09765625 C71.10927002 13.05921631 70.64432129 14.02077637 70.1652832 15.01147461 C69.43378052 16.52173218 69.43378052 16.52173218 68.6875 18.0625 C64.88476422 25.95467839 61.17926407 33.83227738 58 42 C57.34 42 56.68 42 56 42 C55.81824219 42.58007812 55.63648438 43.16015625 55.44921875 43.7578125 C54.26350342 47.44265091 53.12030811 50.78086737 51.25 54.1875 C49.68415029 57.71066185 49.92916675 59.32857172 51 63 C51.45375 63.9075 51.9075 64.815 52.375 65.75 C54.15610435 69.31220869 55.19862838 72.80519448 56.25390625 76.6328125 C56.92042551 78.98175103 56.92042551 78.98175103 58.0078125 80.953125 C59.22546606 83.46513471 59.72593958 85.89731413 60.3125 88.625 C61.29801314 92.75715152 62.48601811 96.26233992 64.5 100 C66.98079326 104.60612957 68.10539294 109.10288232 69.25390625 114.18359375 C70.11728121 117.44272123 71.42085224 120.12609612 73.02734375 123.0703125 C74.44667485 125.88617421 75.33201992 128.82394505 76.26953125 131.828125 C76.96922619 133.90850141 77.81367817 135.82970083 78.75 137.8125 C80 141 80 141 79 145 C68.11 145 57.22 145 46 145 C45.59007812 142.46828125 45.18015625 139.9365625 44.7578125 137.328125 C44.35406921 134.83576415 43.95023226 132.3434185 43.54638672 129.85107422 C43.26894537 128.13852492 42.99159914 126.42596021 42.71435547 124.71337891 C40.10816575 108.53488934 40.10816575 108.53488934 37.3671875 92.37890625 C37.20476563 91.44949219 37.04234375 90.52007812 36.875 89.5625 C36.62363281 88.14130859 36.62363281 88.14130859 36.3671875 86.69140625 C36 84 36 84 36 79 C32.37 79 28.74 79 25 79 C25.11964322 85.54306049 25.24395689 92.0860109 25.37231445 98.62890625 C25.41521712 100.84763269 25.45691616 103.06638279 25.49731445 105.28515625 C25.71098154 116.97617527 25.9705164 128.62235031 26.89868164 140.28125 C26.94883423 141.62703125 26.94883423 141.62703125 27 143 C26 144 26 144 23.49975586 144.11352539 C22.41573486 144.10828857 21.33171387 144.10305176 20.21484375 144.09765625 C19.04501953 144.09443359 17.87519531 144.09121094 16.66992188 144.08789062 C15.43822266 144.07951172 14.20652344 144.07113281 12.9375 144.0625 C11.08415039 144.05573242 11.08415039 144.05573242 9.19335938 144.04882812 C6.12885883 144.03699608 3.06445279 144.02051173 0 144 C-2.34326981 137.94798017 -3.43778977 132.72459492 -3.37231445 126.24926758 C-3.37596512 125.42497757 -3.37961578 124.60068756 -3.38337708 123.75141907 C-3.39142401 121.04890758 -3.37790607 118.34700768 -3.36328125 115.64453125 C-3.3627613 113.7371165 -3.36328421 111.82970121 -3.36479187 109.92228699 C-3.36470236 105.9254047 -3.35432903 101.92872496 -3.33618164 97.93188477 C-3.31369645 92.8751372 -3.31291633 87.81869021 -3.31969929 82.76190662 C-3.32308872 78.81753497 -3.31631408 74.87322841 -3.30657005 70.92886925 C-3.30278746 69.0686547 -3.30154008 67.2084328 -3.3031559 65.3482151 C-3.30488619 53.41849635 -2.67631457 41.68498998 -1.46736145 29.81520081 C-0.83648183 23.59291229 -0.56733924 17.3755695 -0.375 11.125 C-0.25125 7.45375 -0.1275 3.7825 0 0 Z " fill="#050505" transform="translate(715,33)"/>
<path d="M0 0 C21.34576283 -0.19523564 42.66472313 0.40489139 64 1 C64.17251853 4.52057091 64.33684708 8.04148363 64.5 11.5625 C64.57154297 13.01946289 64.57154297 13.01946289 64.64453125 14.50585938 C65.0181166 22.69805246 65 30.7729004 65 39 C51.14 39 37.28 39 23 39 C23 47.25 23 55.5 23 64 C33.23 64 43.46 64 54 64 C54.495 72.91 54.495 72.91 55 82 C45.43 82 35.86 82 26 82 C26 91.9 26 101.8 26 112 C28.289375 112.06058594 30.57875 112.12117188 32.9375 112.18359375 C35.17825002 112.24557095 37.41895877 112.30888036 39.65966797 112.37231445 C41.20552831 112.41537149 42.75142731 112.45706426 44.29736328 112.49731445 C46.53169361 112.55573303 48.76583444 112.61921267 51 112.68359375 C51.68054443 112.70030624 52.36108887 112.71701874 53.06225586 112.73423767 C57.80692533 112.87760423 62.242747 113.40534337 67 114 C67 123.9 67 133.8 67 144 C62.49553075 144.02370773 57.9913 144.0433627 53.48681641 144.05493164 C51.97313687 144.05978217 50.45946141 144.06645178 48.94580078 144.07543945 C31.62093687 144.17527765 14.3133578 143.56113255 -3 143 C-3.02350965 130.9572501 -3.04110661 118.91450594 -3.05181217 106.87173748 C-3.05695871 101.2755672 -3.06389991 95.67941299 -3.07543945 90.08325195 C-3.11866964 68.51629341 -3.15605257 46.95492801 -2.55859375 25.39453125 C-2.53906206 24.64730993 -2.51953037 23.90008862 -2.49940681 23.13022423 C-2.17572999 11.17572999 -2.17572999 11.17572999 -1 10 C-0.76712992 8.31816052 -0.58735834 6.6287584 -0.4375 4.9375 C-0.31181641 3.55884766 -0.31181641 3.55884766 -0.18359375 2.15234375 C-0.12300781 1.44207031 -0.06242188 0.73179688 0 0 Z " fill="#050505" transform="translate(805,34)"/>
<path d="M0 0 C3.82105438 -0.09364597 7.63832851 -0.12328337 11.46044922 -0.13867188 C12.745 -0.15929687 14.02955078 -0.17992188 15.35302734 -0.20117188 C33.93408624 -0.27697426 33.93408624 -0.27697426 38.79414368 4.47706604 C42.64771359 9.20832647 43.07951566 13.15246534 42.88623047 19.10742188 C42.87915573 19.94096695 42.87208099 20.77451202 42.86479187 21.63331604 C42.83699807 24.27276725 42.7742931 26.91002781 42.71044922 29.54882812 C42.68534671 31.34762542 42.66253697 33.14645626 42.64208984 34.9453125 C42.58722136 39.33481716 42.50105797 43.72270239 42.39794922 48.11132812 C39.86668077 48.12492897 37.33548688 48.13479639 34.80419922 48.14257812 C34.09553711 48.14676758 33.386875 48.15095703 32.65673828 48.15527344 C26.8497379 48.16862286 21.17278855 47.75297694 15.39794922 47.11132812 C15.39794922 41.17132813 15.39794922 35.23132813 15.39794922 29.11132812 C13.27357422 29.23507813 11.14919922 29.35882813 8.96044922 29.48632812 C7.76548828 29.5559375 6.57052734 29.62554687 5.33935547 29.69726562 C4.36869141 29.83390625 3.39802734 29.97054687 2.39794922 30.11132812 C0.94971411 33.00779834 1.39275288 35.42297729 1.51904297 38.65039062 C1.56738281 39.95234375 1.61572266 41.25429687 1.66552734 42.59570312 C1.72205316 43.97591616 1.7786953 45.35612445 1.83544922 46.73632812 C1.88867215 48.12433031 1.94141254 49.51235109 1.99365234 50.90039062 C2.12366084 54.30424954 2.25863805 57.70783929 2.39794922 61.11132812 C3.32474487 61.08522461 3.32474487 61.08522461 4.27026367 61.05859375 C12.45674199 60.9332334 20.45562952 61.71026973 28.58544922 62.61132812 C29.93239722 62.75639155 31.27940229 62.9009261 32.62646484 63.04492188 C35.88422312 63.39521846 39.14131086 63.75079342 42.39794922 64.11132812 C42.4497248 70.79260852 42.48411946 77.47383521 42.5078125 84.15527344 C42.51771554 86.41636079 42.53124152 88.67743591 42.54882812 90.93847656 C42.64095888 103.11057495 42.54058978 115.27048015 41.80810547 127.42382812 C41.75005234 128.91795227 41.75005234 128.91795227 41.69082642 130.44226074 C41.2031292 137.0809338 41.2031292 137.0809338 38.96975708 139.93899536 C29.56598901 148.04031349 15.70199645 147.21881434 4.01806641 146.39575195 C-2.01911185 145.74039296 -7.56071652 144.48716679 -12.97705078 141.67382812 C-13.78916016 141.26261719 -14.60126953 140.85140625 -15.43798828 140.42773438 C-19.96006547 137.67694013 -21.20406693 135.23653563 -22.60205078 130.11132812 C-22.77606543 127.30155994 -22.85962119 124.59693896 -22.83251953 121.79101562 C-22.83206131 121.00993439 -22.83160309 120.22885315 -22.83113098 119.42410278 C-22.82812405 117.78190582 -22.82028477 116.13971132 -22.80786133 114.49755859 C-22.78955715 111.98720176 -22.78735226 109.47721364 -22.78759766 106.96679688 C-22.78268335 105.36653328 -22.77685541 103.76627217 -22.77001953 102.16601562 C-22.76890671 101.41802704 -22.76779388 100.67003845 -22.76664734 99.89938354 C-22.73480698 96.40046262 -22.45772077 93.53400808 -21.60205078 90.11132812 C-14.34205078 90.44132812 -7.08205078 90.77132812 0.39794922 91.11132812 C0.39794922 98.37132812 0.39794922 105.63132812 0.39794922 113.11132812 C3.42982422 113.32789063 3.42982422 113.32789063 6.52294922 113.54882812 C10.91232418 113.86235491 15.03624523 114.38437746 19.39794922 115.11132812 C19.39794922 103.23132813 19.39794922 91.35132812 19.39794922 79.11132812 C16.48982422 79.13195312 13.58169922 79.15257813 10.58544922 79.17382812 C0.49551217 79.2082992 -9.53478644 78.74907338 -19.60205078 78.11132812 C-21.88781204 67.84690048 -21.30096933 56.91589956 -21.54553223 46.43048096 C-21.60499755 43.99041198 -21.67312354 41.55066873 -21.74169922 39.11083984 C-21.85884962 34.79523522 -21.93948981 30.4800804 -21.99801636 26.16329956 C-22.02561787 24.46739882 -22.06357786 22.7716338 -22.11209106 21.07620239 C-22.17802181 18.68111129 -22.2051098 16.28844621 -22.22314453 13.89257812 C-22.26482254 12.82244728 -22.26482254 12.82244728 -22.30734253 11.73069763 C-22.29062769 7.64071175 -21.70636969 6.22481835 -18.90283203 3.17480469 C-15.6026875 1.11172617 -13.98475925 0.45122116 -10.16845703 0.31445312 C-9.12447754 0.26869141 -8.08049805 0.22292969 -7.00488281 0.17578125 C-4.66960568 0.13154871 -2.33458123 0.0721546 0 0 Z " fill="#040404" transform="translate(204.60205078125,31.888671875)"/>
<path d="M0 0 C0.96424393 0.01978409 1.92848785 0.03956818 2.92195129 0.05995178 C4.95879359 0.1077532 6.99537339 0.16820259 9.03149414 0.24047852 C12.11684129 0.34670292 15.20044051 0.40597425 18.28710938 0.45898438 C20.27481596 0.51150791 22.26245268 0.56676052 24.25 0.625 C25.6130854 0.65037086 25.6130854 0.65037086 27.00370789 0.67625427 C34.43378432 0.978752 38.41866407 2.66893182 45.95703125 5.41015625 C45.95703125 27.19015625 45.95703125 48.97015625 45.95703125 71.41015625 C40.95703125 72.41015625 40.95703125 72.41015625 28.95703125 72.41015625 C28.95703125 59.21015625 28.95703125 46.01015625 28.95703125 32.41015625 C21.03703125 32.41015625 13.11703125 32.41015625 4.95703125 32.41015625 C4.95703125 34.72015625 4.95703125 37.03015625 4.95703125 39.41015625 C4.62369792 41.07682292 4.29036458 42.74348958 3.95703125 44.41015625 C3.66263473 47.67624507 3.52803364 50.94650216 3.39453125 54.22265625 C3.33084351 55.76457642 3.33084351 55.76457642 3.26586914 57.33764648 C2.57112229 77.34551705 2.87559807 97.39365997 2.95703125 117.41015625 C6.39451355 117.43917019 9.83196437 117.4569596 13.26953125 117.47265625 C14.73422852 117.48522461 14.73422852 117.48522461 16.22851562 117.49804688 C17.16630859 117.50126953 18.10410156 117.50449219 19.0703125 117.5078125 C20.36642456 117.51566772 20.36642456 117.51566772 21.6887207 117.52368164 C24.12431839 117.50351148 24.12431839 117.50351148 26.95703125 116.41015625 C26.95703125 108.82015625 26.95703125 101.23015625 26.95703125 93.41015625 C32.56703125 93.41015625 38.17703125 93.41015625 43.95703125 93.41015625 C44.96593619 97.445776 45.10744066 101.04473962 45.08203125 105.16015625 C45.08009766 105.92569824 45.07816406 106.69124023 45.07617188 107.47998047 C45.00034797 118.13113252 44.4662923 128.77255969 43.95703125 139.41015625 C42.3985137 140.23026937 40.83501409 141.04091838 39.26953125 141.84765625 C38.39941406 142.30011719 37.52929688 142.75257813 36.6328125 143.21875 C24.28078555 148.71855762 3.84899066 146.77249434 -9.04296875 143.41015625 C-10.14253906 143.13816406 -11.24210938 142.86617187 -12.375 142.5859375 C-20.12784282 140.11201731 -20.12784282 140.11201731 -22.3515625 135.9765625 C-23.18582381 132.79080818 -23.62825199 129.67696017 -24.04296875 126.41015625 C-24.45822001 124.44463364 -24.87378938 122.47915027 -25.30175781 120.51635742 C-27.90103474 108.12538521 -27.02215945 96.43182667 -25.82763672 83.94287109 C-25.27221991 78.10168864 -24.78294614 72.27010084 -24.48046875 66.41015625 C-24.43881592 65.64566162 -24.39716309 64.88116699 -24.35424805 64.09350586 C-24.10949262 58.93370262 -24.0238624 53.78428879 -24.0148468 48.61962891 C-24.00529157 45.23628838 -23.96973065 41.85336611 -23.93386841 38.47021484 C-23.92339822 36.78437334 -23.92541778 35.0984007 -23.94088745 33.41259766 C-24.05301606 20.77870763 -22.3985093 12.21732941 -13.43188477 2.61352539 C-9.33602458 -0.63316971 -5.01429685 -0.19172142 0 0 Z " fill="#040404" transform="translate(657.04296875,32.58984375)"/>
<path d="M0 0 C2.64540216 0.00540781 5.29063778 -0.00000846 7.93603516 -0.00634766 C16.10736369 -0.00921942 24.13484566 0.07155426 32.25244141 1.13037109 C32.35988773 10.53789343 32.19000824 19.75470276 31.25244141 29.13037109 C25.97244141 28.80037109 20.69244141 28.47037109 15.25244141 28.13037109 C15.28273438 29.89815918 15.31302734 31.66594727 15.34423828 33.48730469 C15.48549157 41.82657875 15.62094749 50.16593789 15.75244141 58.50537109 C15.76431866 59.25834599 15.77619591 60.01132088 15.78843307 60.78711319 C16.22913562 88.90363482 16.3676359 117.01011494 16.25244141 145.13037109 C5.03244141 145.13037109 -6.18755859 145.13037109 -17.74755859 145.13037109 C-17.8405824 120.37570295 -17.87372749 95.63007237 -17.31005859 70.88037109 C-17.29041046 69.98661774 -17.27076233 69.09286438 -17.2505188 68.17202759 C-16.95020176 54.81463618 -16.39787538 41.4750311 -15.74755859 28.13037109 C-22.01755859 27.80037109 -28.28755859 27.47037109 -34.74755859 27.13037109 C-34.83504769 18.38146116 -34.60642622 9.83440415 -33.74755859 1.13037109 C-22.48483179 0.26309569 -11.29335652 -0.0274572 0 0 Z " fill="#040404" transform="translate(427.74755859375,32.86962890625)"/>
<path d="M0 0 C2.64963307 0.00543869 5.29910196 -0.0000286 7.94873047 -0.00634766 C9.66357459 -0.00568794 11.3784186 -0.00440899 13.09326172 -0.00244141 C13.87045563 -0.00446564 14.64764954 -0.00648987 15.44839478 -0.00857544 C20.37768159 0.01236154 25.11073325 0.43348569 29.99169922 1.13037109 C30.0942052 10.20784562 29.995928 19.09231204 28.99169922 28.13037109 C23.71169922 28.13037109 18.43169922 28.13037109 12.99169922 28.13037109 C13.02199219 29.89815918 13.05228516 31.66594727 13.08349609 33.48730469 C13.22474938 41.82657875 13.3602053 50.16593789 13.49169922 58.50537109 C13.50357647 59.25834599 13.51545372 60.01132088 13.52769089 60.78711319 C13.96839344 88.90363482 14.10689371 117.01011494 13.99169922 145.13037109 C2.77169922 145.13037109 -8.44830078 145.13037109 -20.00830078 145.13037109 C-20.16308098 106.1257609 -19.76272364 67.10095547 -18.00830078 28.13037109 C-24.27830078 27.80037109 -30.54830078 27.47037109 -37.00830078 27.13037109 C-37.09578988 18.38146116 -36.8671684 9.83440415 -36.00830078 1.13037109 C-23.99608131 0.32882612 -12.03858922 -0.02941208 0 0 Z " fill="#040404" transform="translate(66.00830078125,32.86962890625)"/>
<path d="M0 0 C4.51617599 -0.07654536 8.59085217 -0.10228696 13 1 C13.27714844 2.05960937 13.55429688 3.11921875 13.83984375 4.2109375 C14.205614 5.59898869 14.57150572 6.98700787 14.9375 8.375 C15.11990234 9.07367188 15.30230469 9.77234375 15.49023438 10.4921875 C16.48512509 14.33955098 16.48512509 14.33955098 18 18 C18.08573394 20.25120742 18.10712188 22.50499303 18.09765625 24.7578125 C18.0962413 25.42086395 18.09482635 26.08391541 18.09336853 26.76705933 C18.08776754 28.88641863 18.075215 31.00567259 18.0625 33.125 C18.05748512 34.56119639 18.05292219 35.99739444 18.04882812 37.43359375 C18.03864833 40.95580248 18.01907338 44.47778321 18 48 C11.73 48 5.46 48 -1 48 C-1.19148936 15.70212766 -1.19148936 15.70212766 0 0 Z " fill="#F3F3F3" transform="translate(124,64)"/>
<path d="M0 0 C1.26175049 -0.01329346 2.52350098 -0.02658691 3.82348633 -0.0402832 C4.53322098 -0.04776077 5.24295563 -0.05523834 5.97419739 -0.0629425 C8.78956021 0.02453195 10.60261948 0.50647928 13 2 C21.3565645 14.60706398 18.40472606 33.60074616 18 48 C11.73 48 5.46 48 -1 48 C-1.0565129 37.3614469 -0.83740909 26.75678313 -0.5 16.125 C-0.45162761 14.55078724 -0.40344948 12.9765685 -0.35546875 11.40234375 C-0.23920939 7.6014901 -0.12035313 3.80072613 0 0 Z " fill="#F4F4F4" transform="translate(574,64)"/>
<path d="M0 0 C12 0 12 0 17 2 C19.8634577 7.98273645 19.4432571 14.49185036 19.48046875 20.99536133 C19.49999212 23.06166556 19.56216724 25.12407151 19.625 27.18945312 C19.71257434 38.31686754 19.71257434 38.31686754 16.78125 41.43359375 C13 43 13 43 0 43 C0 28.81 0 14.62 0 0 Z " fill="#F1F1F1" transform="translate(488,50)"/>
<path d="M0 0 C12 0 12 0 16 2 C19.02876783 10.12985048 19.22727073 18.6134356 19.3125 27.1875 C19.34150391 28.17169922 19.37050781 29.15589844 19.40039062 30.16992188 C19.46376985 37.34152508 19.46376985 37.34152508 17.1484375 40.62890625 C11.90748155 43.97358904 6.0888311 43 0 43 C0 28.81 0 14.62 0 0 Z " fill="#F5F5F5" transform="translate(899,50)"/>
<path d="M0 0 C1.74216797 0.05414063 1.74216797 0.05414063 3.51953125 0.109375 C4.39996094 0.15578125 5.28039062 0.2021875 6.1875 0.25 C6.1875 0.58 6.1875 0.91 6.1875 1.25 C4.99253906 1.25386719 4.99253906 1.25386719 3.7734375 1.2578125 C-3.58140943 1.36990632 -3.58140943 1.36990632 -9.4375 5.3125 C-10.22125 6.281875 -11.005 7.25125 -11.8125 8.25 C-12.4725 8.25 -13.1325 8.25 -13.8125 8.25 C-11.21365055 1.63474684 -6.83074914 -0.27598986 0 0 Z " fill="#2A2A2A" transform="translate(653.8125,32.75)"/>
</svg>
